HIERARCHY
ROOT Pelvis
{
	OFFSET 0.000000 0.000000 0.000000
	CHANNELS 6 Xposition Yposition Zposition Xrotation Yrotation Zrotation
	JOINT LeftUpLeg_virtual
	{
		OFFSET 0.000000 0.000000 0.000000
		CHANNELS 3 Xrotation Yrotation Zrotation
		JOINT LeftUpLeg
		{
			OFFSET 18.735201 -5.666702 -4.541200
			CHANNELS 3 Xrotation Yrotation Zrotation
			JOINT LeftLeg
			{
				OFFSET -0.021200 -31.938179 0.493100
				CHANNELS 3 Xrotation Yrotation Zrotation
				JOINT LeftFoot
				{
					OFFSET 0.021200 -31.938179 -4.336299
					CHANNELS 3 Xrotation Yrotation Zrotation
					JOINT LeftToeBase
					{
						OFFSET 0.943001 -26.722000 15.023500
						CHANNELS 3 Xrotation Yrotation Zrotation
						End Site
						{
							OFFSET 0 0 0
						}
					}
				}
			}
		}
	}
	JOINT RightUpLeg_virtual
	{
		OFFSET 0.000000 0.000000 0.000000
		CHANNELS 3 Xrotation Yrotation Zrotation
		JOINT RightUpLeg
		{
			OFFSET -18.735201 -5.666702 -4.541200
			CHANNELS 3 Xrotation Yrotation Zrotation
			JOINT RightLeg
			{
				OFFSET 0.018946 -31.938133 0.493100
				CHANNELS 3 Xrotation Yrotation Zrotation
				JOINT RightFoot
				{
					OFFSET -0.018946 -31.938126 -4.336299
					CHANNELS 3 Xrotation Yrotation Zrotation
					JOINT RightToeBase
					{
						OFFSET -0.943001 -26.722004 15.023500
						CHANNELS 3 Xrotation Yrotation Zrotation
						End Site
						{
							OFFSET 0 0 0
						}
					}
				}
			}
		}
	}
	JOINT Hips_virtual
	{
		OFFSET 0.000000 0.000000 0.000000
		CHANNELS 3 Xrotation Yrotation Zrotation
		JOINT Hips
		{
			OFFSET -0.000000 -0.000000 -0.000000
			CHANNELS 3 Xrotation Yrotation Zrotation
			JOINT Spine
			{
				OFFSET 0.000000 10.199997 -0.299500
				CHANNELS 3 Xrotation Yrotation Zrotation
				JOINT Spine1
				{
					OFFSET 0.000000 11.900002 -1.516600
					CHANNELS 3 Xrotation Yrotation Zrotation
					JOINT Spine2
					{
						OFFSET 0.000000 13.600006 -2.842500
						CHANNELS 3 Xrotation Yrotation Zrotation
						JOINT Neck_virtual
						{
							OFFSET 0.000000 0.000000 0.000000
							CHANNELS 3 Xrotation Yrotation Zrotation
							JOINT Neck
							{
								OFFSET 0.000000 9.624100 -2.890100
								CHANNELS 3 Xrotation Yrotation Zrotation
								JOINT Head
								{
									OFFSET 0.000000 14.068802 -1.351900
									CHANNELS 3 Xrotation Yrotation Zrotation
									End Site
									{
										OFFSET 0 0 0
									}
								}
							}
						}
						JOINT LeftShoulder_virtual
						{
							OFFSET 0.000000 0.000000 0.000000
							CHANNELS 3 Xrotation Yrotation Zrotation
							JOINT LeftShoulder
							{
								OFFSET 15.263000 10.923401 -0.547700
								CHANNELS 3 Xrotation Yrotation Zrotation
								JOINT LeftArm
								{
									OFFSET 25.438599 -2.830597 -13.032500
									CHANNELS 3 Xrotation Yrotation Zrotation
									JOINT LeftForeArm
									{
										OFFSET 29.960503 0.000000 0.000000
										CHANNELS 3 Xrotation Yrotation Zrotation
										JOINT LeftHand
										{
											OFFSET 27.849251 0.000000 0.000000
											CHANNELS 3 Xrotation Yrotation Zrotation
											End Site
											{
												OFFSET 0 0 0
											}
										}
									}
								}
							}
						}
						JOINT RightShoulder_virtual
						{
							OFFSET 0.000000 0.000000 0.000000
							CHANNELS 3 Xrotation Yrotation Zrotation
							JOINT RightShoulder
							{
								OFFSET -15.263000 10.923401 -0.547700
								CHANNELS 3 Xrotation Yrotation Zrotation
								JOINT RightArm
								{
									OFFSET -25.438599 -2.830597 -13.032500
									CHANNELS 3 Xrotation Yrotation Zrotation
									JOINT RightForeArm
									{
										OFFSET -29.960503 0.000000 0.000000
										CHANNELS 3 Xrotation Yrotation Zrotation
										JOINT RightHand
										{
											OFFSET -27.849251 0.000000 0.000000
											CHANNELS 3 Xrotation Yrotation Zrotation
											End Site
											{
												OFFSET 0 0 0
											}
										}
									}
								}
							}
						}
					}
				}
			}
		}
	}
}
MOTION
Frames: 13
Frame Time: 0.03333333
-0.733261 90.105392 46.532768 0.000000 0.000000 0.000000 12.818480 -13.912741 3.699134 -26.157015 7.866775 18.997813 35.679815 1.304129 -3.614982 -13.912334 3.427659 -10.390482 0.000000 0.000000 0.000000 3.646803 3.724758 1.317497 -26.602649 -3.835486 -13.604842 38.453384 -2.510753 -1.161843 -12.612439 -5.264761 7.043616 0.000000 0.000000 0.000000 4.432338 -1.804065 0.703367 1.692833 1.253672 -4.122870 5.854561 -0.300883 -0.975198 3.175223 -0.365961 -0.454857 0.000000 0.000000 0.000000 6.344190 -0.681774 0.222533 2.161360 -0.046279 0.885294 0.000000 0.000000 0.000000 5.403413 -0.048431 2.936475 2.819315 -7.204269 17.414985 -47.334072 -41.024411 -33.843003 3.345676 -82.145094 7.148023 0.000000 0.000000 0.000000 1.870417 -2.791940 -1.310488 1.145569 -3.977484 -9.015489 -29.825568 50.364507 23.048902 -172.626584 80.261041 169.218251 0.000000 0.000000 0.000000 
-0.788759 90.622444 46.994431 0.000000 0.000000 0.000000 13.115589 -13.609721 3.498168 -25.579941 8.071686 18.730474 34.868123 1.413484 -3.617217 -14.388651 3.562869 -10.343167 0.000000 0.000000 0.000000 4.162092 3.623040 1.343825 -25.845475 -3.962127 -13.541613 37.590513 -2.634283 -1.226328 -13.148439 -5.397083 6.826877 0.000000 0.000000 0.000000 4.388300 -1.884622 0.711488 1.706008 1.376087 -4.145494 5.514717 -0.304477 -1.017429 2.980073 -0.366805 -0.473271 0.000000 0.000000 0.000000 6.079515 -0.691094 0.231885 2.036082 -0.044723 0.882347 0.000000 0.000000 0.000000 5.197786 -0.048006 2.933800 2.711922 -7.093437 17.385509 -47.284686 -40.914069 -34.140509 2.966264 -82.121714 6.648774 0.000000 0.000000 0.000000 1.587939 -2.794513 -1.342480 0.970707 -3.910187 -9.070605 -29.612736 50.384229 23.103692 -172.774389 80.273991 169.416968 0.000000 0.000000 0.000000 
-0.841104 91.096359 47.427002 0.000000 0.000000 0.000000 13.391344 -13.328936 3.308457 -25.044267 8.261225 18.478360 34.126186 1.509799 -3.621431 -14.817175 3.684780 -10.307590 0.000000 0.000000 0.000000 4.653279 3.549800 1.374360 -25.119110 -4.077781 -13.473545 36.784534 -2.763930 -1.292546 -13.648828 -5.531570 6.605162 0.000000 0.000000 0.000000 4.336418 -1.958669 0.720761 1.712868 1.521396 -4.158958 5.190943 -0.307345 -1.056213 2.790804 -0.367363 -0.488369 0.000000 0.000000 0.000000 5.823176 -0.702168 0.242961 1.912417 -0.042781 0.879627 0.000000 0.000000 0.000000 5.001644 -0.044194 2.932335 2.605539 -6.956083 17.343983 -47.174904 -40.858120 -34.430765 2.785568 -82.147594 6.340979 0.000000 0.000000 0.000000 1.315143 -2.794726 -1.375058 0.799719 -3.845972 -9.117277 -29.370507 50.360242 23.195201 -172.922686 80.278458 169.627707 0.000000 0.000000 0.000000 
-0.888291 91.519882 47.823772 0.000000 0.000000 0.000000 13.640524 -13.075846 3.133894 -24.560155 8.432030 18.246671 33.465973 1.592869 -3.628292 -15.191434 3.792896 -10.284258 0.000000 0.000000 0.000000 5.108679 3.500923 1.405974 -24.441122 -4.180614 -13.405010 36.055186 -2.894367 -1.358034 -14.100646 -5.663335 6.386746 0.000000 0.000000 0.000000 4.276906 -2.028043 0.731684 1.709889 1.685194 -4.161883 4.888590 -0.310794 -1.091789 2.610086 -0.368221 -0.500208 0.000000 0.000000 0.000000 5.580626 -0.715260 0.254928 1.793054 -0.040689 0.876593 0.000000 0.000000 0.000000 4.818631 -0.036489 2.931632 2.501808 -6.790301 17.286700 -46.995100 -40.850596 -34.711465 2.805472 -82.216988 6.224282 0.000000 0.000000 0.000000 1.055026 -2.793158 -1.407805 0.634044 -3.785913 -9.155739 -29.096329 50.289740 23.328725 -173.065177 80.277870 169.846246 0.000000 0.000000 0.000000 
-0.928930 91.889221 48.178238 0.000000 0.000000 0.000000 13.859299 -12.854412 2.977486 -24.134864 8.581739 18.039373 32.895407 1.662485 -3.637795 -15.507120 3.886501 -10.272754 0.000000 0.000000 0.000000 5.519107 3.472159 1.435872 -23.825510 -4.269413 -13.339885 35.417044 -3.021185 -1.420382 -14.493749 -5.788595 6.178934 0.000000 0.000000 0.000000 4.210599 -2.094649 0.744558 1.695690 1.862852 -4.153788 4.611329 -0.316044 -1.124572 2.439703 -0.369886 -0.508971 0.000000 0.000000 0.000000 5.356388 -0.730551 0.266884 1.680285 -0.038697 0.872699 0.000000 0.000000 0.000000 4.651327 -0.024592 2.930944 2.401932 -6.595383 17.209237 -46.735590 -40.882599 -34.982569 3.025764 -82.321231 6.295374 0.000000 0.000000 0.000000 0.809761 -2.790291 -1.440180 0.474733 -3.730418 -9.185484 -28.784173 50.170448 23.509417 -173.195292 80.277303 170.069251 0.000000 0.000000 0.000000 
-0.962373 92.203232 48.483990 0.000000 0.000000 0.000000 14.045116 -12.667177 2.841357 -23.772996 8.708890 17.859208 32.419063 1.718374 -3.649414 -15.761693 3.964682 -10.272023 0.000000 0.000000 0.000000 5.878004 3.460119 1.461880 -23.282494 -4.343400 -13.281176 34.879611 -3.141119 -1.477548 -14.820988 -5.904730 5.987442 0.000000 0.000000 0.000000 4.138871 -2.160124 0.759475 1.670996 2.049965 -4.135036 4.361209 -0.324105 -1.154946 2.280598 -0.372740 -0.514856 0.000000 0.000000 0.000000 5.153695 -0.748101 0.278061 1.575832 -0.037063 0.867506 0.000000 0.000000 0.000000 4.501240 -0.008596 2.929332 2.306856 -6.372766 17.106914 -46.387117 -40.942879 -35.246109 3.442364 -82.449344 6.546486 0.000000 0.000000 0.000000 0.580854 -2.786408 -1.471546 0.322619 -3.679021 -9.205312 -28.424768 50.000898 23.740923 -173.307267 80.284263 170.294743 0.000000 0.000000 0.000000 
-0.988724 92.462662 48.734859 0.000000 0.000000 0.000000 14.196507 -12.515335 2.726740 -23.476876 8.812836 17.707740 32.038737 1.760300 -3.662331 -15.954154 4.026535 -10.280623 0.000000 0.000000 0.000000 6.181374 3.462745 1.482584 -22.818559 -4.402108 -13.230840 34.447578 -3.252067 -1.528098 -15.078199 -6.010175 5.816025 0.000000 0.000000 0.000000 4.063388 -2.225575 0.776314 1.638031 2.242644 -4.106659 4.138765 -0.335683 -1.183083 2.132927 -0.377015 -0.517968 0.000000 0.000000 0.000000 4.974220 -0.767820 0.287998 1.480707 -0.036059 0.860755 0.000000 0.000000 0.000000 4.368824 0.010862 2.925778 2.217415 -6.126824 16.975173 -45.941464 -41.018718 -35.505721 4.044473 -82.588093 6.962892 0.000000 0.000000 0.000000 0.369297 -2.781520 -1.501245 0.178439 -3.630303 -9.213674 -28.006515 49.780437 24.023894 -173.397138 80.308838 170.522544 0.000000 0.000000 0.000000 
-1.008735 92.669403 48.925442 0.000000 0.000000 0.000000 14.312906 -12.398696 2.633941 -23.247001 8.893676 17.585430 31.753751 1.788269 -3.675646 -16.084862 4.071461 -10.296912 0.000000 0.000000 0.000000 6.427631 3.479305 1.497300 -22.436618 -4.445332 -13.189777 34.121337 -3.352927 -1.571310 -15.264085 -6.104195 5.666473 0.000000 0.000000 0.000000 3.985755 -2.291413 0.794736 1.599557 2.437621 -4.070117 3.943188 -0.351099 -1.208832 1.996152 -0.382775 -0.518265 0.000000 0.000000 0.000000 4.817970 -0.789459 0.296637 1.395158 -0.035968 0.852416 0.000000 0.000000 0.000000 4.253529 0.032510 2.919303 2.134426 -5.865342 16.809965 -45.392392 -41.096821 -35.766296 4.810995 -82.723522 7.519779 0.000000 0.000000 0.000000 0.175690 -2.775339 -1.528744 0.042891 -3.581965 -9.209260 -27.517171 49.509593 24.355121 -173.464293 80.363384 170.754852 0.000000 0.000000 0.000000 
-1.023626 92.826118 49.051838 0.000000 0.000000 0.000000 14.394431 -12.315665 2.562329 -23.082370 8.952199 17.491660 31.561078 1.802740 -3.688551 -16.155522 4.099446 -10.319168 0.000000 0.000000 0.000000 6.617427 3.510115 1.505932 -22.136255 -4.473143 -13.158003 33.897546 -3.443338 -1.607154 -15.379993 -6.186611 5.538865 0.000000 0.000000 0.000000 3.907182 -2.357287 0.814185 1.557902 2.632199 -4.027048 3.772587 -0.370230 -1.231705 1.869176 -0.389896 -0.515531 0.000000 0.000000 0.000000 4.683390 -0.812608 0.304340 1.318705 -0.037080 0.842675 0.000000 0.000000 0.000000 4.153903 0.054460 2.909079 2.058704 -5.599469 16.608052 -44.736557 -41.164116 -36.033619 5.707190 -82.840366 8.179319 0.000000 0.000000 0.000000 0.000342 -2.767293 -1.553772 -0.083346 -3.531005 -9.191644 -26.945851 49.190230 24.727486 -173.512555 80.461268 170.996777 0.000000 0.000000 0.000000 
-1.034872 92.936043 49.112350 0.000000 0.000000 0.000000 14.441769 -12.263165 2.510359 -22.980713 8.989869 17.424837 31.455425 1.804751 -3.700430 -16.169235 4.111238 -10.345649 0.000000 0.000000 0.000000 6.753454 3.556089 1.508781 -21.913970 -4.485931 -13.134874 33.769610 -3.523399 -1.636161 -15.429679 -6.257566 5.431996 0.000000 0.000000 0.000000 3.828269 -2.422161 0.833904 1.514255 2.824090 -3.979060 3.624339 -0.392467 -1.250957 1.750524 -0.398063 -0.509431 0.000000 0.000000 0.000000 4.567673 -0.836697 0.311835 1.250284 -0.039669 0.831892 0.000000 0.000000 0.000000 4.067758 0.074362 2.894529 1.991027 -5.343080 16.367315 -43.974520 -41.208696 -36.314135 6.683302 -82.924739 8.889717 0.000000 0.000000 0.000000 -0.156669 -2.756573 -1.576434 -0.199621 -3.473973 -9.161744 -26.285066 48.825682 25.131210 -173.550886 80.614872 171.256680 0.000000 0.000000 0.000000 
-1.044016 93.003120 49.107868 0.000000 0.000000 0.000000 14.456169 -12.236625 2.475649 -22.938547 9.008783 17.382471 31.429170 1.795906 -3.710881 -16.130586 4.108342 -10.374623 0.000000 0.000000 0.000000 6.840178 3.618252 1.506383 -21.763559 -4.484426 -13.119308 33.728157 -3.593433 -1.659254 -15.419046 -6.317381 5.343845 0.000000 0.000000 0.000000 3.748965 -2.484524 0.852979 1.468442 3.011224 -3.927621 3.495504 -0.416730 -1.265762 1.638568 -0.406770 -0.499596 0.000000 0.000000 0.000000 4.467224 -0.860988 0.320087 1.188467 -0.043968 0.820522 0.000000 0.000000 0.000000 3.992439 0.089675 2.875404 1.932067 -5.111529 16.086933 -43.111287 -41.220383 -36.614701 7.676859 -82.964218 9.587747 0.000000 0.000000 0.000000 -0.295442 -2.742192 -1.597223 -0.305323 -3.407245 -9.121898 -25.532482 48.420516 25.556234 -173.593206 80.833267 171.546239 0.000000 0.000000 0.000000 
-1.052526 93.032143 49.041897 0.000000 0.000000 0.000000 14.439447 -12.230121 2.455118 -22.951143 9.011630 17.361310 31.472463 1.778233 -3.719685 -16.045719 4.092889 -10.404428 0.000000 0.000000 0.000000 6.883493 3.697230 1.499391 -21.676690 -4.469744 -13.109992 33.761400 -3.653874 -1.677559 -15.355940 -6.366504 5.271985 0.000000 0.000000 0.000000 3.668756 -2.542724 0.870409 1.419237 3.191549 -3.874065 3.383257 -0.441518 -1.275416 1.531764 -0.415348 -0.485735 0.000000 0.000000 0.000000 4.378182 -0.884592 0.330134 1.131694 -0.050134 0.809017 0.000000 0.000000 0.000000 3.925155 0.098032 2.851842 1.882323 -4.919978 15.767618 -42.156416 -41.191204 -36.942123 8.619845 -82.949874 10.206106 0.000000 0.000000 0.000000 -0.416233 -2.723072 -1.616909 -0.399894 -3.327293 -9.075425 -24.692148 47.979921 25.995495 -173.656945 81.120927 171.879566 0.000000 0.000000 0.000000 
-1.061697 93.028915 48.920155 0.000000 0.000000 0.000000 14.394057 -12.236722 2.445215 -23.012570 9.001565 17.357536 31.573509 1.753953 -3.726770 -15.922202 4.067387 -10.433554 0.000000 0.000000 0.000000 6.890209 3.792813 1.488520 -21.643638 -4.443370 -13.105547 33.855615 -3.705212 -1.692241 -15.249815 -6.405533 5.213904 0.000000 0.000000 0.000000 3.586968 -2.595319 0.885204 1.365098 3.362909 -3.819646 3.285247 -0.465035 -1.279510 1.428860 -0.423013 -0.467734 0.000000 0.000000 0.000000 4.296875 -0.906490 0.342900 1.078493 -0.058222 0.797737 0.000000 0.000000 0.000000 3.863319 0.097599 2.824394 1.842066 -4.781611 15.411738 -41.123394 -41.115621 -37.302436 9.449286 -82.876190 10.684006 0.000000 0.000000 0.000000 -0.519469 -2.698131 -1.636324 -0.482855 -3.230949 -9.025673 -23.774908 47.508938 26.448089 -173.760532 81.476405 172.271591 0.000000 0.000000 0.000000 
